<svg xmlns="http://www.w3.org/2000/svg" version="1.1" xmlns:xlink="http://www.w3.org/1999/xlink" xmlns:svgjs="http://svgjs.dev/svgjs" viewBox="0 0 1422 800"><defs><filter id="uuunion-blur" x="-100%" y="-100%" width="400%" height="400%" color-interpolation-filters="sRGB">
        <feGaussianBlur in="SourceGraphic" stdDeviation="7.5 0" result="blur"></feGaussianBlur>
        <feDropShadow stdDeviation="12.307692307692308" in="blur" dx="10" dy="10" flood-color="hsl(265, 57%, 17%)" flood-opacity="0.25" x="0%" y="0%" width="100%" height="100%"></feDropShadow>
      </filter><filter id="uuunion-blur2" x="-100%" y="-100%" width="400%" height="400%" color-interpolation-filters="sRGB">
        <feGaussianBlur in="SourceGraphic" stdDeviation="7.5 0" result="blur"></feGaussianBlur>
        <feDropShadow stdDeviation="12.307692307692308" in="blur" dx="-10" dy="-10" flood-color="hsl(265, 57%, 17%)" flood-opacity="0.25" x="0%" y="0%" width="100%" height="100%"></feDropShadow>
      </filter><linearGradient gradientTransform="rotate(0, 0.5, 0.5)" x1="50%" y1="0%" x2="50%" y2="100%" id="uuunion-grad"><stop stop-color="hsl(265, 51%, 55%)" offset="10%"></stop><stop stop-color="hsl(265, 57%, 17%)" offset="90%"></stop></linearGradient><linearGradient gradientTransform="rotate(135, 0.5, 0.5)" x1="50%" y1="0%" x2="50%" y2="100%" id="uuunion-grad2"><stop stop-color="hsl(265, 51%, 55%)" offset="25%"></stop><stop stop-color="hsl(265, 57%, 17%)" offset="100%"></stop></linearGradient><linearGradient gradientTransform="rotate(333, 0.5, 0.5)" x1="50%" y1="0%" x2="50%" y2="100%" id="uuunion-grad3"><stop stop-color="hsl(265, 51%, 55%)" offset="0%"></stop><stop stop-color="hsl(265, 57%, 17%)" offset="75%"></stop></linearGradient></defs><path d="M-131.31 -88.54Q-118.33 -87.67 -105.35 -86.23 -92.36 -84.33 -79.38 -82.11 -66.4 -79.74 -53.42 -77.38 -40.44 -75.22 -27.45 -73.41 -14.47 -72.08 -1.49 -71.34 11.48 -71.23 24.46 -71.77 37.44 -72.91 50.43 -74.57 63.41 -76.64 76.39 -78.94 89.37 -81.33 102.35 -83.62 115.34 -85.64 128.32 -87.25 141.3 -88.32 154.28 -88.78 167.26 -88.59 180.24 -87.78 193.23 -86.38 206.21 -84.52 219.19 -82.33 232.17 -79.96 245.15 -77.6 258.14 -75.41 271.12 -73.56 284.1 -72.19 297.08 -71.38 310.06 -71.21 323.04 -71.69 336.03 -72.78 349.01 -74.4 361.99 -76.43 374.97 -78.72 387.95 -81.11 400.94 -83.41 413.92 -85.47 426.9 -87.12 439.88 -88.24 452.86 -88.76 465.85 -88.64 478.83 -87.88 491.81 -86.54 504.79 -84.72 517.77 -82.55 530.75 -80.19 543.74 -77.82 556.72 -75.61 569.7 -73.72 582.68 -72.29 595.66 -71.43 608.65 -71.2 621.63 -71.62 634.61 -72.65 647.59 -74.22 660.57 -76.22 673.56 -78.5 686.54 -80.88 699.52 -83.2 712.5 -85.29 725.48 -86.98 738.46 -88.16 751.45 -88.74 764.43 -88.68 777.41 -87.98 790.39 -86.69 803.37 -84.91 816.36 -82.76 829.34 -80.42 842.32 -78.04 855.3 -75.8 868.28 -73.88 881.27 -72.4 894.25 -71.49 907.23 -71.2 920.21 -71.55 933.19 -72.53 946.18 -74.06 959.16 -76.02 972.14 -78.27 985.12 -80.66 998.1 -82.99 1011.08 -85.1 1024.07 -86.84 1037.05 -88.08 1050.03 -88.71 1063.01 -88.71 1075.99 -88.07 1088.98 -86.83 1101.96 -85.09 1114.94 -82.98 1127.92 -80.64 1140.9 -78.26 1153.89 -76 1166.87 -74.04 1179.85 -72.52 1192.83 -71.55 1205.81 -71.2 1218.8 -71.49 1231.78 -72.41 1244.76 -73.89 1257.74 -75.82 1270.72 -78.05 1283.71 -80.43 1296.69 -82.78 1309.67 -84.92 1322.65 -86.7 1335.63 -87.98 1348.61 -88.68 1361.6 -88.74 1374.58 -88.16 1387.56 -86.97 1400.54 -85.27 1413.52 -83.19 1426.51 -80.87 1439.49 -78.48 1452.47 -76.21 1465.45 -74.21 1478.43 -72.64 1491.42 -71.61 1504.4 -71.2 1517.38 -71.44 1530.36 -72.3 1532.29 -57.1 1536.75 -41.91 1543.4 -26.71 1551.71 -11.51 1561 3.67 1570.55 18.87 1579.6 34.07 1587.42 49.26 1593.39 64.46 1597.04 79.66 1598.07 94.85 1596.41 110.05 1592.19 125.25 1585.74 140.44 1577.57 155.64 1568.34 170.84 1558.78 186.03 1549.66 201.23 1541.68 216.43 1535.5 231.63 1531.6 246.82 1530.3 262.02 1531.69 277.22 1535.67 292.41 1541.92 307.61 1549.94 322.81 1559.09 338 1568.65 353.2 1577.86 368.4 1585.98 383.59 1592.36 398.79 1596.51 413.99 1598.08 429.18 1596.96 444.38 1593.23 459.58 1587.19 474.77 1579.32 489.97 1570.25 505.17 1560.69 520.36 1551.42 535.56 1543.16 550.76 1536.57 565.95 1532.18 581.15 1530.34 596.35 1531.2 611.54 1534.68 626.74 1540.5 641.94 1548.22 657.13 1557.2 672.33 1566.74 687.53 1576.08 702.72 1584.47 717.92 1591.25 733.12 1595.88 748.31 1597.98 763.51 1597.4 778.71 1594.17 793.9 1588.57 809.1 1581.02 824.3 1572.13 839.49 1562.61 854.69 1553.22 869.89 1544.7 885.09 1537.73 900.28 1524.67 902.56 1511.62 903.18 1498.56 902.09 1485.5 899.38 1472.44 895.24 1459.38 889.98 1446.33 883.99 1433.27 877.7 1420.21 871.58 1407.15 866.08 1394.09 861.6 1381.04 858.48 1367.98 856.94 1354.92 857.09 1341.86 858.93 1328.8 862.32 1315.74 867.01 1302.69 872.66 1289.63 878.84 1276.57 885.11 1263.51 891.01 1250.45 896.09 1237.4 899.99 1224.34 902.41 1211.28 903.19 1198.22 902.27 1185.16 899.7 1172.11 895.68 1159.05 890.51 1145.99 884.57 1132.93 878.29 1119.87 872.14 1106.82 866.56 1093.76 861.97 1080.7 858.71 1067.64 857.01 1054.58 857.01 1041.53 858.69 1028.47 861.94 1015.41 866.53 1002.35 872.1 989.29 878.25 976.24 884.53 963.18 890.48 950.12 895.65 937.06 899.68 924 902.25 910.95 903.19 897.89 902.43 884.83 900.01 871.77 896.12 858.71 891.04 845.66 885.15 832.6 878.89 819.54 872.7 806.48 867.05 793.43 862.35 780.37 858.95 767.31 857.1 754.25 856.93 741.19 858.46 728.14 861.58 715.08 866.04 702.02 871.54 688.96 877.66 675.9 883.94 662.85 889.94 649.79 895.21 636.73 899.36 623.67 902.08 610.61 903.18 597.56 902.57 584.5 900.3 571.44 896.54 558.38 891.56 545.32 885.73 532.27 879.48 519.21 873.27 506.15 867.55 493.09 862.74 480.03 859.21 466.98 857.21 453.92 856.88 440.86 858.25 427.8 861.22 414.74 865.57 401.69 870.99 388.63 877.06 375.57 883.35 362.51 889.4 349.45 894.75 336.4 899.02 323.34 901.89 310.28 903.15 297.22 902.7 284.16 900.58 271.11 896.95 258.05 892.08 244.99 886.31 231.93 880.08 218.88 873.84 205.82 868.06 192.76 863.15 179.7 859.48 166.64 857.32 153.59 856.83 140.53 858.05 127.47 860.88 114.41 865.11 101.35 870.44 88.3 876.47 75.24 882.76 62.18 888.85 49.12 894.29 36.06 898.67 23.01 901.68 9.95 903.1 -3.1 902.82 -16.16 900.85 -29.21 897.36 -42.27 892.58 -55.33 886.88 -68.39 880.67 -81.45 874.42 -94.5 868.57 -107.56 863.57 -120.62 859.77 -133.68 857.46 -135.92 842.68 -138.66 827.9 -141.68 813.11 -144.74 798.33 -147.59 783.55 -150.02 768.77 -151.82 753.99 -152.86 739.21 -153.05 724.43 -152.37 709.64 -150.88 694.86 -148.7 680.08 -146 665.3 -143 650.52 -139.94 635.74 -137.05 620.96 -134.57 606.17 -132.7 591.39 -131.58 576.61 -131.3 561.83 -131.9 547.05 -133.31 532.27 -135.42 517.49 -138.08 502.7 -141.06 487.92 -144.13 473.14 -147.05 458.36 -149.58 443.58 -151.52 428.8 -152.72 414.02 -153.08 399.23 -152.57 384.45 -151.24 369.67 -149.19 354.89 -146.58 340.11 -143.62 325.33 -140.54 310.55 -137.6 295.76 -135.02 280.98 -133.02 266.2 -131.74 251.42 -131.29 236.64 -131.71 221.86 -132.96 207.08 -134.95 192.29 -137.51 177.51 -140.45 162.73 -143.52 147.95 -146.49 133.17 -149.11 118.39 -151.18 103.61 -152.54 88.82 -153.08 74.04 -152.74 59.26 -151.57 44.48 -149.65 29.7 -147.14 14.92 -144.23 0.14 -141.16 -14.64 -138.17 -29.42 -135.5 -44.2 -133.36 -58.98 -131.93 -73.76 -131.31 -88.54" fill="url(#uuunion-grad)"></path><path d="M-131.32 -88.54Q-131.94 -73.76 -133.37 -58.98 -135.51 -44.2 -138.18 -29.42 -141.17 -14.64 -144.24 0.13 -147.15 14.92 -149.66 29.7 -151.58 44.48 -152.75 59.26 -153.09 74.04 -152.55 88.82 -151.19 103.6 -149.12 118.39 -146.5 133.17 -143.53 147.95 -140.46 162.73 -137.52 177.51 -134.96 192.29 -132.97 207.07 -131.72 221.86 -131.3 236.64 -131.75 251.42 -133.02 266.2 -135.03 280.98 -137.61 295.76 -140.55 310.54 -143.63 325.33 -146.59 340.11 -149.2 354.89 -151.25 369.67 -152.58 384.45 -143.47 385.39 -134.36 386.81 -125.25 388.66 -116.14 390.89 -107.03 393.41 -97.92 396.15 -88.81 399.01 -79.7 401.91 -70.59 404.74 -61.48 407.42 -52.37 409.85 -43.26 411.97 -34.15 413.68 -25.04 414.95 -7.83 415.92 -4.78 415.98 6.71 412.26 18.22 407.75 29.74 402.55 41.27 396.74 52.79 390.48 64.31 383.93 75.83 377.26 87.33 370.66 98.82 364.3 110.3 358.34 121.76 352.93 133.2 348.18 144.62 344.17 156.01 340.94 167.37 338.48 178.71 336.77 190.02 335.72 201.3 335.23 212.54 335.15 223.75 335.34 234.93 335.61 246.07 335.8 257.18 335.73 268.25 335.26 279.29 334.25 290.3 332.6 301.27 330.23 312.22 327.11 323.13 323.25 334.01 318.69 344.87 313.5 355.7 307.8 366.5 301.72 377.29 295.41 388.06 289.03 398.81 282.76 409.55 276.75 420.27 271.15 430.99 266.07 441.7 261.62 452.42 257.86 463.13 254.82 473.85 252.49 484.57 250.82 495.31 249.73 506.06 249.12 516.83 248.86 527.62 248.79 538.43 248.77 549.27 248.62 560.14 248.21 571.04 247.39 581.98 246.06 592.96 244.11 603.97 241.51 615.03 238.21 626.13 234.25 637.27 229.66 648.47 224.53 659.71 218.96 671 213.08 682.34 207.02 693.73 200.95 705.18 195.01 716.67 189.35 728.22 184.08 739.82 179.32 751.47 175.15 763.16 171.62 774.91 168.73 786.69 166.48 798.53 164.82 810.4 163.66 822.31 162.91 834.26 162.44 846.25 162.1 858.26 161.77 870.3 161.29 882.36 160.54 894.45 159.39 906.55 157.75 918.66 155.54 930.77 152.73 942.89 149.3 955.01 145.26 967.12 140.69 979.22 135.64 991.3 130.23 1003.36 124.56 1015.4 118.78 1027.4 113.02 1039.37 107.42 1051.3 102.09 1063.19 97.15 1075.02 92.68 1086.8 88.76 1098.53 85.42 1110.19 82.66 1121.78 80.46 1133.31 78.77 1144.76 77.51 1156.13 76.59 1167.42 75.88 1178.64 75.27 1189.76 74.62 1200.8 73.81 1211.75 72.73 1222.61 71.26 1233.38 69.34 1244.06 66.9 1254.65 63.91 1265.14 60.37 1275.54 56.31 1285.85 51.77 1296.07 46.84 1306.2 41.61 1316.25 36.19 1326.21 30.69 1336.09 25.25 1345.89 19.97 1355.62 14.97 1365.28 10.33 1374.87 6.14 1384.4 2.44 1393.87 -0.74 1403.29 -3.41 1412.66 -5.59 1422 -7.34 1412.22 -24.65 1403.49 -41.95 1396.77 -59.26 1392.77 -76.57 1391.93 -93.87 1394.34 -111.18 1399.73 -128.49 1407.53 -145.8 1395.37 -146.95 1383.22 -147.66 1371.06 -147.89 1358.9 -147.63 1346.74 -146.89 1334.59 -145.71 1322.43 -144.18 1310.27 -142.38 1298.11 -140.43 1285.96 -138.46 1273.8 -136.58 1261.64 -134.92 1249.48 -133.57 1237.33 -132.63 1225.17 -132.15 1213.01 -132.16 1200.85 -132.67 1188.7 -133.64 1176.54 -135 1164.38 -136.68 1152.22 -138.57 1140.07 -140.54 1127.91 -142.49 1115.75 -144.27 1103.59 -145.79 1091.44 -146.94 1079.28 -147.66 1067.12 -147.89 1054.96 -147.63 1042.81 -146.89 1030.65 -145.72 1018.49 -144.19 1006.33 -142.39 994.18 -140.44 982.02 -138.47 969.86 -136.59 957.7 -134.92 945.55 -133.58 933.39 -132.63 921.23 -132.15 909.07 -132.16 896.92 -132.67 884.76 -133.63 872.6 -134.99 860.44 -136.67 848.29 -138.56 836.13 -140.53 823.97 -142.48 811.81 -144.26 799.66 -145.78 787.5 -146.94 775.34 -147.66 763.18 -147.89 751.03 -147.64 738.87 -146.9 726.71 -145.73 714.55 -144.19 702.4 -142.4 690.24 -140.45 678.08 -138.48 665.92 -136.6 653.77 -134.93 641.61 -133.58 629.45 -132.64 617.29 -132.15 605.13 -132.16 592.98 -132.66 580.82 -133.62 568.66 -134.99 556.5 -136.66 544.35 -138.55 532.19 -140.52 520.03 -142.47 507.87 -144.26 495.72 -145.78 483.56 -146.93 471.4 -147.65 459.24 -147.89 447.09 -147.64 434.93 -146.9 422.77 -145.73 410.61 -144.2 398.46 -142.41 386.3 -140.46 374.14 -138.49 361.98 -136.61 349.83 -134.94 337.67 -133.59 325.51 -132.64 313.35 -132.15 301.2 -132.16 289.04 -132.66 276.88 -133.62 264.72 -134.98 252.57 -136.65 240.41 -138.54 228.25 -140.51 216.09 -142.46 203.94 -144.25 191.78 -145.77 179.62 -146.93 167.46 -147.65 155.31 -147.89 143.15 -147.64 130.99 -146.91 118.83 -145.74 106.68 -144.21 94.52 -142.42 82.36 -140.47 70.2 -138.5 58.05 -136.62 45.89 -134.95 33.73 -133.59 21.57 -132.64 9.42 -132.16 -2.73 -132.16 -14.89 -132.66 -27.05 -133.61 -39.2 -134.97 -51.36 -136.64 -63.52 -138.53 -75.68 -140.5 -87.83 -142.45 -99.99 -144.24 -112.15 -145.76 -124.31 -146.92 -139.83 -140.38 -138.42 -118.29 -134.44 -103.43 -131.32 -88.54" fill="url(#uuunion-grad2)" filter="url(#uuunion-blur)"></path><path d="M1414.67 309.13Q1423.5 311.12 1432.33 313.4 1441.16 315.9 1449.99 318.53 1458.82 321.21 1467.65 323.85 1476.48 326.36 1485.31 328.67 1494.14 330.69 1502.97 332.36 1511.8 333.62 1520.64 334.44 1529.47 334.78 1538.3 334.64 1547.13 334.02 1555.96 332.94 1567.06 350.67 1577.86 368.4 1587.18 386.13 1594.01 403.85 1597.63 421.58 1597.63 439.31 1594.02 457.04 1587.19 474.77 1577.87 492.5 1567.08 510.23 1555.97 527.96 1545.75 545.69 1537.53 563.42 1532.18 581.15 1530.3 598.88 1532.07 616.61 1537.32 634.34 1545.47 652.07 1555.64 669.8 1566.74 687.53 1577.56 705.26 1586.94 722.99 1593.86 740.72 1597.57 758.45 1597.68 776.18 1594.17 793.9 1587.43 811.63 1578.17 829.36 1567.4 847.09 1556.29 864.82 1546.03 882.55 1537.73 900.28 1525.75 902.43 1513.78 903.19 1501.8 902.52 1489.82 900.45 1477.84 897.11 1465.87 892.71 1453.89 887.52 1441.91 881.87 1429.93 876.1 1417.96 870.57 1405.98 865.63 1394 861.57 1382.02 858.66 1370.05 857.07 1358.07 856.9 1346.09 858.16 1334.11 860.77 1322.14 864.58 1310.16 869.34 1298.18 874.75 1286.2 880.5 1274.23 886.21 1262.25 891.54 1250.27 896.15 1238.29 899.76 1226.32 902.15 1214.34 903.16 1202.36 902.74 1190.38 900.91 1178.41 897.79 1166.43 893.56 1154.45 888.49 1142.47 882.89 1130.5 877.12 1118.52 871.52 1106.54 866.45 1094.56 862.22 1082.59 859.09 1070.61 857.25 1058.63 856.82 1046.65 857.83 1034.68 860.22 1022.7 863.82 1010.72 868.43 998.74 873.76 986.77 879.47 974.79 885.21 962.81 890.64 950.83 895.4 938.86 899.21 926.88 901.82 914.9 903.09 902.92 902.92 890.95 901.34 878.97 898.43 866.99 894.38 855.01 889.44 843.04 883.91 831.06 878.14 819.08 872.49 807.1 867.3 795.12 862.9 783.15 859.55 771.17 857.48 759.19 856.8 747.21 857.55 735.24 859.7 723.26 863.1 711.28 867.55 699.3 872.77 687.33 878.44 675.35 884.21 663.37 889.71 651.39 894.61 639.42 898.61 627.44 901.45 615.46 902.97 603.48 903.06 591.51 901.72 579.53 899.03 567.55 895.17 555.57 890.37 543.6 884.92 531.62 879.17 519.64 873.47 507.66 868.17 495.69 863.61 483.71 860.06 471.73 857.75 459.75 856.81 447.78 857.31 435.8 859.22 423.82 862.41 411.84 866.7 399.87 871.8 387.89 877.42 375.91 883.19 363.93 888.77 351.96 893.8 339.98 897.98 328 901.04 316.02 902.8 304.05 903.15 292.07 902.06 280.09 899.6 268.11 895.93 256.14 891.28 244.16 885.92 232.18 880.2 220.2 874.46 208.23 869.07 196.25 864.35 184.27 860.61 172.29 858.06 160.32 856.87 148.34 857.12 136.36 858.78 124.38 861.76 112.41 865.87 100.43 870.85 88.45 876.4 76.47 882.17 64.5 887.81 52.52 892.96 40.54 897.31 28.56 900.59 10.13 897.81 2.56 882.89 1.32 872.74 0.01 862.59 -1.34 852.44 -2.68 842.29 -4.29 827.07 -4.12 822 7.93 814.94 20.11 806.53 32.41 796.91 44.82 786.31 57.34 775.01 69.96 763.36 82.67 751.69 95.46 740.37 108.31 729.71 121.21 720 134.14 711.45 147.1 704.19 160.06 698.28 173.02 693.69 185.95 690.3 198.85 687.91 211.7 686.26 224.5 685.05 237.23 683.96 249.89 682.64 262.48 680.78 274.99 678.11 287.42 674.4 299.78 669.49 312.07 663.31 324.29 655.88 336.46 647.26 348.58 637.64 360.66 627.24 372.73 616.32 384.78 605.21 396.83 594.21 408.91 583.63 421.02 573.75 433.18 564.78 445.4 556.91 457.69 550.22 470.07 544.72 482.55 540.36 495.14 537.01 507.83 534.47 520.65 532.48 533.58 530.77 546.63 529.05 559.8 527.02 573.07 524.41 586.45 520.99 599.92 516.6 613.46 511.11 627.07 504.5 640.73 496.8 654.41 488.1 668.1 478.6 681.78 468.49 695.42 458.04 709.01 447.52 722.52 437.2 735.92 427.36 749.21 418.2 762.35 409.92 775.33 402.64 788.14 396.4 800.76 391.2 813.19 386.96 823.04 387.81 832.89 389.08 842.72 390.67 852.55 392.48 862.36 394.37 872.16 396.24 881.94 397.95 891.71 399.39 901.47 400.46 911.22 401.06 920.95 401.13 930.66 400.61 940.36 399.48 950.05 397.73 959.72 395.38 969.38 392.49 979.02 389.11 988.65 385.33 998.26 381.25 1007.85 376.97 1017.43 372.63 1026.99 368.34 1036.54 364.22 1046.07 360.38 1055.59 356.93 1065.08 353.94 1074.56 351.49 1084.03 349.62 1093.48 348.35 1102.91 347.68 1112.32 347.6 1121.72 348.04 1131.1 348.95 1140.47 350.24 1149.82 351.81 1159.15 353.54 1168.47 355.32 1177.77 357.04 1187.05 358.56 1196.32 359.8 1205.57 360.64 1214.81 361.02 1224.03 360.86 1233.24 360.12 1242.43 358.79 1251.61 356.88 1260.78 354.4 1269.93 351.4 1279.06 347.97 1288.18 344.18 1297.29 340.14 1306.39 335.94 1315.47 331.72 1324.54 327.59 1333.6 323.65 1342.65 320.02 1351.69 316.79 1360.71 314.03 1369.73 311.8 1378.73 310.14 1387.73 309.06 1396.72 308.55 1405.69 308.59 1414.67 309.13" fill="url(#uuunion-grad3)" filter="url(#uuunion-blur2)"></path></svg>